<svg width="138" height="138" viewBox="0 0 138 138" fill="none" xmlns="http://www.w3.org/2000/svg">
<circle cx="69" cy="69" r="68.5" fill="#0053B9" stroke="white"/>
<path d="M40 23.5C54.3333 29 83.1 43.7 83.5 58.5C83.9 73.3 93.6667 76.3333 98.5 76" stroke="white" stroke-width="6"/>
<path d="M99 23C84.5442 28.5499 55.5316 43.3831 55.1282 58.3173C54.7248 73.2515 44.8746 76.3123 40 75.976" stroke="white" stroke-width="6"/>
<path d="M40 57.5C54.3333 63 83.1 77.7 83.5 92.5C83.9 107.3 93.6667 110.333 98.5 110" stroke="white" stroke-width="6"/>
<path d="M99 57C84.5442 62.5499 55.5316 77.3831 55.1282 92.3173C54.7248 107.251 44.8746 110.312 40 109.976" stroke="white" stroke-width="6"/>
</svg>
