<svg id="visual" viewBox="0 0 900 600" width="900" height="600" xmlns="http://www.w3.org/2000/svg" xmlns:xlink="http://www.w3.org/1999/xlink" version="1.1"><rect x="0" y="0" width="900" height="600" fill="#002233"></rect><path d="M0 275L12.5 277C25 279 50 283 75 273.3C100 263.7 125 240.3 150 243.8C175 247.3 200 277.7 225 314.2C250 350.7 275 393.3 300 394.3C325 395.3 350 354.7 375 343C400 331.3 425 348.7 450 341.2C475 333.7 500 301.3 525 278.2C550 255 575 241 600 253.2C625 265.3 650 303.7 675 324.8C700 346 725 350 750 369.2C775 388.3 800 422.7 825 425.2C850 427.7 875 398.3 887.5 383.7L900 369L900 601L887.5 601C875 601 850 601 825 601C800 601 775 601 750 601C725 601 700 601 675 601C650 601 625 601 600 601C575 601 550 601 525 601C500 601 475 601 450 601C425 601 400 601 375 601C350 601 325 601 300 601C275 601 250 601 225 601C200 601 175 601 150 601C125 601 100 601 75 601C50 601 25 601 12.5 601L0 601Z" fill="#0066FF" stroke-linecap="round" stroke-linejoin="miter"></path></svg>