<svg xmlns="http://www.w3.org/2000/svg" version="1.1" xmlns:xlink="http://www.w3.org/1999/xlink" xmlns:svgjs="http://svgjs.dev/svgjs" width="1440" height="560" preserveAspectRatio="none" viewBox="0 0 1440 560"><g mask="url(&quot;#SvgjsMask1023&quot;)" fill="none"><path d="M1512 560L0 560 L0 121.08Q94.23 95.31, 120 189.55Q165.91 115.47, 240 161.38Q337.19 138.57, 360 235.76Q402.82 206.58, 432 249.41Q477.41 222.82, 504 268.24Q511.31 203.56, 576 210.87Q596.03 110.91, 696 130.94Q768.82 83.75, 816 156.57Q923.18 143.75, 936 250.94Q966 208.94, 1008 238.93Q1038 196.93, 1080 226.93Q1105.47 132.41, 1200 157.88Q1277.18 115.06, 1320 192.25Q1345.65 97.91, 1440 123.56Q1486.53 98.09, 1512 144.61z" fill="#182f5d"></path><path d="M1536 560L0 560 L0 368.39Q57.01 305.4, 120 362.41Q121.94 292.35, 192 294.29Q221.93 252.22, 264 282.14Q311.12 209.25, 384 256.37Q439.82 240.19, 456 296.02Q538.52 258.54, 576 341.07Q583.5 276.56, 648 284.06Q659.91 223.98, 720 235.89Q763.68 207.57, 792 251.25Q882.22 221.47, 912 311.68Q980.85 308.52, 984 377.37Q1003.65 277.02, 1104 296.67Q1172.88 245.55, 1224 314.43Q1313.91 284.34, 1344 374.25Q1363.83 322.07, 1416 341.9Q1418.78 224.67, 1536 227.45z" fill="#25467d"></path><path d="M1512 560L0 560 L0 362.24Q86.27 328.51, 120 414.79Q145.45 368.25, 192 393.7Q212.78 342.48, 264 363.26Q286.63 313.89, 336 336.52Q377.55 306.07, 408 347.62Q477.63 345.25, 480 414.88Q488.92 351.8, 552 360.72Q631.75 368.47, 624 448.21Q689.87 394.07, 744 459.94Q790.2 386.14, 864 432.34Q893.05 389.38, 936 418.43Q971.25 333.68, 1056 368.92Q1086.07 326.99, 1128 357.06Q1200.27 309.33, 1248 381.6Q1287.95 301.56, 1368 341.51Q1416.19 317.7, 1440 365.9Q1482.55 336.45, 1512 379z" fill="#356cb1"></path><path d="M1488 560L0 560 L0 579.53Q17.3 524.83, 72 542.13Q86.93 485.06, 144 499.98Q217.08 453.06, 264 526.13Q306.61 496.74, 336 539.34Q341.02 472.36, 408 477.38Q458.54 407.92, 528 458.46Q590.96 449.42, 600 512.38Q670.52 510.9, 672 581.42Q692.12 529.54, 744 549.66Q740.97 474.63, 816 471.6Q844.06 427.67, 888 455.73Q989.8 437.54, 1008 539.34Q1066.36 525.69, 1080 584.05Q1080.55 512.6, 1152 513.15Q1194.04 435.19, 1272 477.23Q1300.01 433.24, 1344 461.25Q1395.88 441.13, 1416 493.01Q1474.22 479.24, 1488 537.46z" fill="white"></path></g><defs><mask id="SvgjsMask1023"><rect width="1440" height="560" fill="#ffffff"></rect></mask></defs></svg>