<svg xmlns="http://www.w3.org/2000/svg" version="1.1" xmlns:xlink="http://www.w3.org/1999/xlink" xmlns:svgjs="http://svgjs.dev/svgjs" width="1440" height="560" preserveAspectRatio="none" viewBox="0 0 1440 560"><g mask="url(&quot;#SvgjsMask1014&quot;)" fill="none"><path d="M-86.89 404.52L-86.89 404.52" stroke="#132e65" stroke-width="1.5"></path><path d="M-86.89 404.52L-68.11 504.9" stroke="#132e65" stroke-width="1.5"></path><path d="M-86.89 404.52L61.47 400.28" stroke="#132e65" stroke-width="1.5"></path><path d="M-68.11 504.9L-68.11 504.9" stroke="#132e65" stroke-width="1.5"></path><path d="M-68.11 504.9L49.6 512.15" stroke="#132e65" stroke-width="1.5"></path><path d="M-68.11 504.9L61.47 400.28" stroke="#132e65" stroke-width="1.5"></path><path d="M-68.11 504.9L-74.26 699.6" stroke="#132e65" stroke-width="1.5"></path><path d="M-68.11 504.9L105.88 689.41" stroke="#132e65" stroke-width="1.5"></path><path d="M-74.26 699.6L-74.26 699.6" stroke="#132e65" stroke-width="1.5"></path><path d="M-74.26 699.6L105.88 689.41" stroke="#132e65" stroke-width="1.5"></path><path d="M-74.26 699.6L49.6 512.15" stroke="#132e65" stroke-width="1.5"></path><path d="M-74.26 699.6L-86.89 404.52" stroke="#132e65" stroke-width="1.5"></path><path d="M-74.26 699.6L61.47 400.28" stroke="#132e65" stroke-width="1.5"></path><path d="M-74.26 699.6L197.14 512.8" stroke="#132e65" stroke-width="1.5"></path><path d="M61.47 400.28L61.47 400.28" stroke="#132e65" stroke-width="1.5"></path><path d="M61.47 400.28L49.6 512.15" stroke="#132e65" stroke-width="1.5"></path><path d="M61.47 400.28L210.67 380.07" stroke="#132e65" stroke-width="1.5"></path><path d="M49.6 512.15L49.6 512.15" stroke="#132e65" stroke-width="1.5"></path><path d="M49.6 512.15L197.14 512.8" stroke="#132e65" stroke-width="1.5"></path><path d="M105.88 689.41L105.88 689.41" stroke="#132e65" stroke-width="1.5"></path><path d="M105.88 689.41L49.6 512.15" stroke="#132e65" stroke-width="1.5"></path><path d="M105.88 689.41L197.14 512.8" stroke="#132e65" stroke-width="1.5"></path><path d="M210.67 380.07L210.67 380.07" stroke="#132e65" stroke-width="1.5"></path><path d="M210.67 380.07L197.14 512.8" stroke="#132e65" stroke-width="1.5"></path><path d="M210.67 380.07L366.56 340.51" stroke="#132e65" stroke-width="1.5"></path><path d="M210.67 380.07L49.6 512.15" stroke="#132e65" stroke-width="1.5"></path><path d="M197.14 512.8L197.14 512.8" stroke="#132e65" stroke-width="1.5"></path><path d="M366.56 340.51L366.56 340.51" stroke="#132e65" stroke-width="1.5"></path><path d="M366.56 340.51L539.24 384.5" stroke="#132e65" stroke-width="1.5"></path><path d="M366.56 340.51L355.97 539.67" stroke="#132e65" stroke-width="1.5"></path><path d="M366.56 340.51L498.71 504.67" stroke="#132e65" stroke-width="1.5"></path><path d="M366.56 340.51L197.14 512.8" stroke="#132e65" stroke-width="1.5"></path><path d="M355.97 539.67L355.97 539.67" stroke="#132e65" stroke-width="1.5"></path><path d="M355.97 539.67L337.91 646.16" stroke="#132e65" stroke-width="1.5"></path><path d="M355.97 539.67L498.71 504.67" stroke="#132e65" stroke-width="1.5"></path><path d="M355.97 539.67L197.14 512.8" stroke="#132e65" stroke-width="1.5"></path><path d="M355.97 539.67L517.32 677.59" stroke="#132e65" stroke-width="1.5"></path><path d="M337.91 646.16L337.91 646.16" stroke="#132e65" stroke-width="1.5"></path><path d="M337.91 646.16L517.32 677.59" stroke="#132e65" stroke-width="1.5"></path><path d="M337.91 646.16L197.14 512.8" stroke="#132e65" stroke-width="1.5"></path><path d="M337.91 646.16L498.71 504.67" stroke="#132e65" stroke-width="1.5"></path><path d="M337.91 646.16L105.88 689.41" stroke="#132e65" stroke-width="1.5"></path><path d="M337.91 646.16L210.67 380.07" stroke="#132e65" stroke-width="1.5"></path><path d="M539.24 384.5L539.24 384.5" stroke="#132e65" stroke-width="1.5"></path><path d="M539.24 384.5L498.71 504.67" stroke="#132e65" stroke-width="1.5"></path><path d="M539.24 384.5L667.88 380.13" stroke="#132e65" stroke-width="1.5"></path><path d="M539.24 384.5L670.54 250.96" stroke="#132e65" stroke-width="1.5"></path><path d="M498.71 504.67L498.71 504.67" stroke="#132e65" stroke-width="1.5"></path><path d="M498.71 504.67L657.25 537.36" stroke="#132e65" stroke-width="1.5"></path><path d="M498.71 504.67L517.32 677.59" stroke="#132e65" stroke-width="1.5"></path><path d="M517.32 677.59L517.32 677.59" stroke="#132e65" stroke-width="1.5"></path><path d="M517.32 677.59L704.9 688.2" stroke="#132e65" stroke-width="1.5"></path><path d="M517.32 677.59L657.25 537.36" stroke="#132e65" stroke-width="1.5"></path><path d="M670.54 250.96L670.54 250.96" stroke="#132e65" stroke-width="1.5"></path><path d="M670.54 250.96L667.88 380.13" stroke="#132e65" stroke-width="1.5"></path><path d="M670.54 250.96L830.34 258.7" stroke="#132e65" stroke-width="1.5"></path><path d="M667.88 380.13L667.88 380.13" stroke="#132e65" stroke-width="1.5"></path><path d="M657.25 537.36L657.25 537.36" stroke="#132e65" stroke-width="1.5"></path><path d="M657.25 537.36L667.88 380.13" stroke="#132e65" stroke-width="1.5"></path><path d="M657.25 537.36L704.9 688.2" stroke="#132e65" stroke-width="1.5"></path><path d="M657.25 537.36L837.67 500.05" stroke="#132e65" stroke-width="1.5"></path><path d="M704.9 688.2L704.9 688.2" stroke="#132e65" stroke-width="1.5"></path><path d="M704.9 688.2L827.88 656.77" stroke="#132e65" stroke-width="1.5"></path><path d="M704.9 688.2L837.67 500.05" stroke="#132e65" stroke-width="1.5"></path><path d="M830.34 258.7L830.34 258.7" stroke="#132e65" stroke-width="1.5"></path><path d="M830.34 258.7L811.07 379.86" stroke="#132e65" stroke-width="1.5"></path><path d="M830.34 258.7L960.53 351.34" stroke="#132e65" stroke-width="1.5"></path><path d="M830.34 258.7L667.88 380.13" stroke="#132e65" stroke-width="1.5"></path><path d="M811.07 379.86L811.07 379.86" stroke="#132e65" stroke-width="1.5"></path><path d="M811.07 379.86L837.67 500.05" stroke="#132e65" stroke-width="1.5"></path><path d="M811.07 379.86L667.88 380.13" stroke="#132e65" stroke-width="1.5"></path><path d="M811.07 379.86L960.53 351.34" stroke="#132e65" stroke-width="1.5"></path><path d="M811.07 379.86L942.04 505" stroke="#132e65" stroke-width="1.5"></path><path d="M837.67 500.05L837.67 500.05" stroke="#132e65" stroke-width="1.5"></path><path d="M837.67 500.05L942.04 505" stroke="#132e65" stroke-width="1.5"></path><path d="M827.88 656.77L827.88 656.77" stroke="#132e65" stroke-width="1.5"></path><path d="M827.88 656.77L956.95 639.89" stroke="#132e65" stroke-width="1.5"></path><path d="M827.88 656.77L837.67 500.05" stroke="#132e65" stroke-width="1.5"></path><path d="M827.88 656.77L942.04 505" stroke="#132e65" stroke-width="1.5"></path><path d="M1006.95 -42.37L1006.95 -42.37" stroke="#132e65" stroke-width="1.5"></path><path d="M1006.95 -42.37L1096.67 -62.05" stroke="#132e65" stroke-width="1.5"></path><path d="M1006.95 -42.37L985.68 47.22" stroke="#132e65" stroke-width="1.5"></path><path d="M1006.95 -42.37L1109.78 39.06" stroke="#132e65" stroke-width="1.5"></path><path d="M1006.95 -42.37L1278.08 -78.79" stroke="#132e65" stroke-width="1.5"></path><path d="M1006.95 -42.37L1271.31 72.8" stroke="#132e65" stroke-width="1.5"></path><path d="M1006.95 -42.37L1153.11 222.6" stroke="#132e65" stroke-width="1.5"></path><path d="M985.68 47.22L985.68 47.22" stroke="#132e65" stroke-width="1.5"></path><path d="M985.68 47.22L1109.78 39.06" stroke="#132e65" stroke-width="1.5"></path><path d="M985.68 47.22L1096.67 -62.05" stroke="#132e65" stroke-width="1.5"></path><path d="M985.68 47.22L1153.11 222.6" stroke="#132e65" stroke-width="1.5"></path><path d="M985.68 47.22L830.34 258.7" stroke="#132e65" stroke-width="1.5"></path><path d="M985.68 47.22L1271.31 72.8" stroke="#132e65" stroke-width="1.5"></path><path d="M960.53 351.34L960.53 351.34" stroke="#132e65" stroke-width="1.5"></path><path d="M960.53 351.34L942.04 505" stroke="#132e65" stroke-width="1.5"></path><path d="M960.53 351.34L1130.49 384.21" stroke="#132e65" stroke-width="1.5"></path><path d="M942.04 505L942.04 505" stroke="#132e65" stroke-width="1.5"></path><path d="M942.04 505L956.95 639.89" stroke="#132e65" stroke-width="1.5"></path><path d="M956.95 639.89L956.95 639.89" stroke="#132e65" stroke-width="1.5"></path><path d="M956.95 639.89L1121.12 641.53" stroke="#132e65" stroke-width="1.5"></path><path d="M1096.67 -62.05L1096.67 -62.05" stroke="#132e65" stroke-width="1.5"></path><path d="M1096.67 -62.05L1109.78 39.06" stroke="#132e65" stroke-width="1.5"></path><path d="M1109.78 39.06L1109.78 39.06" stroke="#132e65" stroke-width="1.5"></path><path d="M1153.11 222.6L1153.11 222.6" stroke="#132e65" stroke-width="1.5"></path><path d="M1153.11 222.6L1307.86 218.12" stroke="#132e65" stroke-width="1.5"></path><path d="M1153.11 222.6L1240.1 353.8" stroke="#132e65" stroke-width="1.5"></path><path d="M1153.11 222.6L1130.49 384.21" stroke="#132e65" stroke-width="1.5"></path><path d="M1153.11 222.6L1109.78 39.06" stroke="#132e65" stroke-width="1.5"></path><path d="M1153.11 222.6L1271.31 72.8" stroke="#132e65" stroke-width="1.5"></path><path d="M1130.49 384.21L1130.49 384.21" stroke="#132e65" stroke-width="1.5"></path><path d="M1130.49 384.21L1240.1 353.8" stroke="#132e65" stroke-width="1.5"></path><path d="M1130.49 384.21L1144.84 538.05" stroke="#132e65" stroke-width="1.5"></path><path d="M1144.84 538.05L1144.84 538.05" stroke="#132e65" stroke-width="1.5"></path><path d="M1144.84 538.05L1121.12 641.53" stroke="#132e65" stroke-width="1.5"></path><path d="M1121.12 641.53L1121.12 641.53" stroke="#132e65" stroke-width="1.5"></path><path d="M1121.12 641.53L1311.19 699.78" stroke="#132e65" stroke-width="1.5"></path><path d="M1278.08 -78.79L1278.08 -78.79" stroke="#132e65" stroke-width="1.5"></path><path d="M1278.08 -78.79L1411.59 -86.46" stroke="#132e65" stroke-width="1.5"></path><path d="M1278.08 -78.79L1271.31 72.8" stroke="#132e65" stroke-width="1.5"></path><path d="M1278.08 -78.79L1096.67 -62.05" stroke="#132e65" stroke-width="1.5"></path><path d="M1271.31 72.8L1271.31 72.8" stroke="#132e65" stroke-width="1.5"></path><path d="M1271.31 72.8L1307.86 218.12" stroke="#132e65" stroke-width="1.5"></path><path d="M1271.31 72.8L1109.78 39.06" stroke="#132e65" stroke-width="1.5"></path><path d="M1271.31 72.8L1441.75 70.75" stroke="#132e65" stroke-width="1.5"></path><path d="M1271.31 72.8L1411.59 -86.46" stroke="#132e65" stroke-width="1.5"></path><path d="M1307.86 218.12L1307.86 218.12" stroke="#132e65" stroke-width="1.5"></path><path d="M1307.86 218.12L1410.68 247.27" stroke="#132e65" stroke-width="1.5"></path><path d="M1240.1 353.8L1240.1 353.8" stroke="#132e65" stroke-width="1.5"></path><path d="M1240.1 353.8L1307.86 218.12" stroke="#132e65" stroke-width="1.5"></path><path d="M1240.1 353.8L1304.78 515.88" stroke="#132e65" stroke-width="1.5"></path><path d="M1304.78 515.88L1304.78 515.88" stroke="#132e65" stroke-width="1.5"></path><path d="M1304.78 515.88L1453.1 556.39" stroke="#132e65" stroke-width="1.5"></path><path d="M1304.78 515.88L1144.84 538.05" stroke="#132e65" stroke-width="1.5"></path><path d="M1311.19 699.78L1311.19 699.78" stroke="#132e65" stroke-width="1.5"></path><path d="M1311.19 699.78L1430.57 652.42" stroke="#132e65" stroke-width="1.5"></path><path d="M1311.19 699.78L1304.78 515.88" stroke="#132e65" stroke-width="1.5"></path><path d="M1411.59 -86.46L1411.59 -86.46" stroke="#132e65" stroke-width="1.5"></path><path d="M1411.59 -86.46L1441.75 70.75" stroke="#132e65" stroke-width="1.5"></path><path d="M1411.59 -86.46L1569.56 -58.68" stroke="#132e65" stroke-width="1.5"></path><path d="M1441.75 70.75L1441.75 70.75" stroke="#132e65" stroke-width="1.5"></path><path d="M1441.75 70.75L1558.14 103.68" stroke="#132e65" stroke-width="1.5"></path><path d="M1410.68 247.27L1410.68 247.27" stroke="#132e65" stroke-width="1.5"></path><path d="M1453.1 556.39L1453.1 556.39" stroke="#132e65" stroke-width="1.5"></path><path d="M1453.1 556.39L1430.57 652.42" stroke="#132e65" stroke-width="1.5"></path><path d="M1453.1 556.39L1562.7 515.57" stroke="#132e65" stroke-width="1.5"></path><path d="M1453.1 556.39L1571.2 657.34" stroke="#132e65" stroke-width="1.5"></path><path d="M1430.57 652.42L1430.57 652.42" stroke="#132e65" stroke-width="1.5"></path><path d="M1430.57 652.42L1571.2 657.34" stroke="#132e65" stroke-width="1.5"></path><path d="M1430.57 652.42L1304.78 515.88" stroke="#132e65" stroke-width="1.5"></path><path d="M1430.57 652.42L1562.7 515.57" stroke="#132e65" stroke-width="1.5"></path><path d="M1430.57 652.42L1144.84 538.05" stroke="#132e65" stroke-width="1.5"></path><path d="M1569.56 -58.68L1569.56 -58.68" stroke="#132e65" stroke-width="1.5"></path><path d="M1569.56 -58.68L1558.14 103.68" stroke="#132e65" stroke-width="1.5"></path><path d="M1569.56 -58.68L1441.75 70.75" stroke="#132e65" stroke-width="1.5"></path><path d="M1569.56 -58.68L1570.12 224.77" stroke="#132e65" stroke-width="1.5"></path><path d="M1569.56 -58.68L1278.08 -78.79" stroke="#132e65" stroke-width="1.5"></path><path d="M1558.14 103.68L1558.14 103.68" stroke="#132e65" stroke-width="1.5"></path><path d="M1558.14 103.68L1570.12 224.77" stroke="#132e65" stroke-width="1.5"></path><path d="M1570.12 224.77L1570.12 224.77" stroke="#132e65" stroke-width="1.5"></path><path d="M1570.12 224.77L1598.19 372.65" stroke="#132e65" stroke-width="1.5"></path><path d="M1570.12 224.77L1410.68 247.27" stroke="#132e65" stroke-width="1.5"></path><path d="M1570.12 224.77L1441.75 70.75" stroke="#132e65" stroke-width="1.5"></path><path d="M1570.12 224.77L1307.86 218.12" stroke="#132e65" stroke-width="1.5"></path><path d="M1598.19 372.65L1598.19 372.65" stroke="#132e65" stroke-width="1.5"></path><path d="M1598.19 372.65L1562.7 515.57" stroke="#132e65" stroke-width="1.5"></path><path d="M1598.19 372.65L1410.68 247.27" stroke="#132e65" stroke-width="1.5"></path><path d="M1598.19 372.65L1453.1 556.39" stroke="#132e65" stroke-width="1.5"></path><path d="M1598.19 372.65L1558.14 103.68" stroke="#132e65" stroke-width="1.5"></path><path d="M1598.19 372.65L1571.2 657.34" stroke="#132e65" stroke-width="1.5"></path><path d="M1562.7 515.57L1562.7 515.57" stroke="#132e65" stroke-width="1.5"></path><path d="M1562.7 515.57L1571.2 657.34" stroke="#132e65" stroke-width="1.5"></path><path d="M1571.2 657.34L1571.2 657.34" stroke="#132e65" stroke-width="1.5"></path><circle r="5" cx="-86.89" cy="404.52" fill="#132e65"></circle><circle r="5" cx="-68.11" cy="504.9" fill="#132e65"></circle><circle r="5" cx="-74.26" cy="699.6" fill="#132e65"></circle><circle r="5" cx="61.47" cy="400.28" fill="#132e65"></circle><circle r="5" cx="49.6" cy="512.15" fill="#132e65"></circle><circle r="5" cx="105.88" cy="689.41" fill="#132e65"></circle><circle r="5" cx="210.67" cy="380.07" fill="#132e65"></circle><circle r="5" cx="197.14" cy="512.8" fill="#132e65"></circle><circle r="5" cx="366.56" cy="340.51" fill="#132e65"></circle><circle r="5" cx="355.97" cy="539.67" fill="#132e65"></circle><circle r="5" cx="337.91" cy="646.16" fill="#132e65"></circle><circle r="5" cx="539.24" cy="384.5" fill="#132e65"></circle><circle r="5" cx="498.71" cy="504.67" fill="#132e65"></circle><circle r="5" cx="517.32" cy="677.59" fill="#132e65"></circle><circle r="5" cx="670.54" cy="250.96" fill="#132e65"></circle><circle r="5" cx="667.88" cy="380.13" fill="#132e65"></circle><circle r="5" cx="657.25" cy="537.36" fill="#132e65"></circle><circle r="5" cx="704.9" cy="688.2" fill="#132e65"></circle><circle r="5" cx="830.34" cy="258.7" fill="#132e65"></circle><circle r="5" cx="811.07" cy="379.86" fill="#132e65"></circle><circle r="5" cx="837.67" cy="500.05" fill="#132e65"></circle><circle r="5" cx="827.88" cy="656.77" fill="#132e65"></circle><circle r="5" cx="1006.95" cy="-42.37" fill="#132e65"></circle><circle r="5" cx="985.68" cy="47.22" fill="#132e65"></circle><circle r="5" cx="960.53" cy="351.34" fill="#132e65"></circle><circle r="5" cx="942.04" cy="505" fill="#132e65"></circle><circle r="5" cx="956.95" cy="639.89" fill="#132e65"></circle><circle r="5" cx="1096.67" cy="-62.05" fill="#132e65"></circle><circle r="5" cx="1109.78" cy="39.06" fill="#132e65"></circle><circle r="5" cx="1153.11" cy="222.6" fill="#132e65"></circle><circle r="5" cx="1130.49" cy="384.21" fill="#132e65"></circle><circle r="5" cx="1144.84" cy="538.05" fill="#132e65"></circle><circle r="5" cx="1121.12" cy="641.53" fill="#132e65"></circle><circle r="5" cx="1278.08" cy="-78.79" fill="#132e65"></circle><circle r="5" cx="1271.31" cy="72.8" fill="#132e65"></circle><circle r="5" cx="1307.86" cy="218.12" fill="#132e65"></circle><circle r="5" cx="1240.1" cy="353.8" fill="#132e65"></circle><circle r="5" cx="1304.78" cy="515.88" fill="#132e65"></circle><circle r="5" cx="1311.19" cy="699.78" fill="#132e65"></circle><circle r="5" cx="1411.59" cy="-86.46" fill="#132e65"></circle><circle r="5" cx="1441.75" cy="70.75" fill="#132e65"></circle><circle r="5" cx="1410.68" cy="247.27" fill="#132e65"></circle><circle r="5" cx="1453.1" cy="556.39" fill="#132e65"></circle><circle r="5" cx="1430.57" cy="652.42" fill="#132e65"></circle><circle r="5" cx="1569.56" cy="-58.68" fill="#132e65"></circle><circle r="5" cx="1558.14" cy="103.68" fill="#132e65"></circle><circle r="5" cx="1570.12" cy="224.77" fill="#132e65"></circle><circle r="5" cx="1598.19" cy="372.65" fill="#132e65"></circle><circle r="5" cx="1562.7" cy="515.57" fill="#132e65"></circle><circle r="5" cx="1571.2" cy="657.34" fill="#132e65"></circle><path d="M-66.52 552.53L-66.52 552.53" stroke="hsl(228.5, 77.2%, 51.5%)" stroke-width="1.5"></path><path d="M-66.52 552.53L-64.19 682.97" stroke="hsl(228.5, 77.2%, 51.5%)" stroke-width="1.5"></path><path d="M-66.52 552.53L79.24 546.75" stroke="hsl(228.5, 77.2%, 51.5%)" stroke-width="1.5"></path><path d="M-66.52 552.53L96.25 660.76" stroke="hsl(228.5, 77.2%, 51.5%)" stroke-width="1.5"></path><path d="M-66.52 552.53L227.29 501.09" stroke="hsl(228.5, 77.2%, 51.5%)" stroke-width="1.5"></path><path d="M-66.52 552.53L346.48 500.72" stroke="hsl(228.5, 77.2%, 51.5%)" stroke-width="1.5"></path><path d="M346.48 500.72L346.48 500.72" stroke="hsl(228.5, 77.2%, 51.5%)" stroke-width="1.5"></path><path d="M346.48 500.72L227.29 501.09" stroke="hsl(228.5, 77.2%, 51.5%)" stroke-width="1.5"></path><path d="M346.48 500.72L358.25 661.42" stroke="hsl(228.5, 77.2%, 51.5%)" stroke-width="1.5"></path><path d="M346.48 500.72L509.39 410.86" stroke="hsl(228.5, 77.2%, 51.5%)" stroke-width="1.5"></path><path d="M358.25 661.42L358.25 661.42" stroke="hsl(228.5, 77.2%, 51.5%)" stroke-width="1.5"></path><path d="M358.25 661.42L528.75 666.81" stroke="hsl(228.5, 77.2%, 51.5%)" stroke-width="1.5"></path><path d="M358.25 661.42L227.29 501.09" stroke="hsl(228.5, 77.2%, 51.5%)" stroke-width="1.5"></path><path d="M666.74 374.85L666.74 374.85" stroke="hsl(228.5, 77.2%, 51.5%)" stroke-width="1.5"></path><path d="M666.74 374.85L642.48 497.52" stroke="hsl(228.5, 77.2%, 51.5%)" stroke-width="1.5"></path><path d="M666.74 374.85L808.5 359.26" stroke="hsl(228.5, 77.2%, 51.5%)" stroke-width="1.5"></path><path d="M666.74 374.85L509.39 410.86" stroke="hsl(228.5, 77.2%, 51.5%)" stroke-width="1.5"></path><path d="M666.74 374.85L545.08 490.5" stroke="hsl(228.5, 77.2%, 51.5%)" stroke-width="1.5"></path><path d="M808.5 359.26L808.5 359.26" stroke="hsl(228.5, 77.2%, 51.5%)" stroke-width="1.5"></path><path d="M808.5 359.26L987.51 392.2" stroke="hsl(228.5, 77.2%, 51.5%)" stroke-width="1.5"></path><path d="M808.5 359.26L855.59 553.22" stroke="hsl(228.5, 77.2%, 51.5%)" stroke-width="1.5"></path><path d="M808.5 359.26L642.48 497.52" stroke="hsl(228.5, 77.2%, 51.5%)" stroke-width="1.5"></path><path d="M1113.14 500.12L1113.14 500.12" stroke="hsl(228.5, 77.2%, 51.5%)" stroke-width="1.5"></path><path d="M1113.14 500.12L1122.06 354.98" stroke="hsl(228.5, 77.2%, 51.5%)" stroke-width="1.5"></path><path d="M1113.14 500.12L1277.19 490.69" stroke="hsl(228.5, 77.2%, 51.5%)" stroke-width="1.5"></path><path d="M1113.14 500.12L987.51 392.2" stroke="hsl(228.5, 77.2%, 51.5%)" stroke-width="1.5"></path><path d="M1113.14 500.12L945.34 541.66" stroke="hsl(228.5, 77.2%, 51.5%)" stroke-width="1.5"></path><path d="M1113.14 500.12L1119.22 695.41" stroke="hsl(228.5, 77.2%, 51.5%)" stroke-width="1.5"></path><path d="M1414.27 -85.09L1414.27 -85.09" stroke="hsl(228.5, 77.2%, 51.5%)" stroke-width="1.5"></path><path d="M1414.27 -85.09L1272.07 -102.39" stroke="hsl(228.5, 77.2%, 51.5%)" stroke-width="1.5"></path><path d="M1414.27 -85.09L1455.08 68.81" stroke="hsl(228.5, 77.2%, 51.5%)" stroke-width="1.5"></path><path d="M1589.13 81.5L1589.13 81.5" stroke="hsl(228.5, 77.2%, 51.5%)" stroke-width="1.5"></path><path d="M1589.13 81.5L1579.35 205.4" stroke="hsl(228.5, 77.2%, 51.5%)" stroke-width="1.5"></path><path d="M1589.13 81.5L1455.08 68.81" stroke="hsl(228.5, 77.2%, 51.5%)" stroke-width="1.5"></path><path d="M-64.19 682.97L-64.19 682.97" stroke="hsl(228.5, 77.2%, 51.5%)" stroke-width="1.5"></path><path d="M-64.19 682.97L96.25 660.76" stroke="hsl(228.5, 77.2%, 51.5%)" stroke-width="1.5"></path><path d="M-64.19 682.97L79.24 546.75" stroke="hsl(228.5, 77.2%, 51.5%)" stroke-width="1.5"></path><path d="M-64.19 682.97L227.29 501.09" stroke="hsl(228.5, 77.2%, 51.5%)" stroke-width="1.5"></path><path d="M79.24 546.75L79.24 546.75" stroke="hsl(228.5, 77.2%, 51.5%)" stroke-width="1.5"></path><path d="M79.24 546.75L96.25 660.76" stroke="hsl(228.5, 77.2%, 51.5%)" stroke-width="1.5"></path><path d="M79.24 546.75L227.29 501.09" stroke="hsl(228.5, 77.2%, 51.5%)" stroke-width="1.5"></path><path d="M79.24 546.75L346.48 500.72" stroke="hsl(228.5, 77.2%, 51.5%)" stroke-width="1.5"></path><path d="M96.25 660.76L96.25 660.76" stroke="hsl(228.5, 77.2%, 51.5%)" stroke-width="1.5"></path><path d="M96.25 660.76L227.29 501.09" stroke="hsl(228.5, 77.2%, 51.5%)" stroke-width="1.5"></path><path d="M227.29 501.09L227.29 501.09" stroke="hsl(228.5, 77.2%, 51.5%)" stroke-width="1.5"></path><path d="M509.39 410.86L509.39 410.86" stroke="hsl(228.5, 77.2%, 51.5%)" stroke-width="1.5"></path><path d="M509.39 410.86L545.08 490.5" stroke="hsl(228.5, 77.2%, 51.5%)" stroke-width="1.5"></path><path d="M509.39 410.86L642.48 497.52" stroke="hsl(228.5, 77.2%, 51.5%)" stroke-width="1.5"></path><path d="M545.08 490.5L545.08 490.5" stroke="hsl(228.5, 77.2%, 51.5%)" stroke-width="1.5"></path><path d="M545.08 490.5L642.48 497.52" stroke="hsl(228.5, 77.2%, 51.5%)" stroke-width="1.5"></path><path d="M545.08 490.5L528.75 666.81" stroke="hsl(228.5, 77.2%, 51.5%)" stroke-width="1.5"></path><path d="M528.75 666.81L528.75 666.81" stroke="hsl(228.5, 77.2%, 51.5%)" stroke-width="1.5"></path><path d="M528.75 666.81L703.55 687.39" stroke="hsl(228.5, 77.2%, 51.5%)" stroke-width="1.5"></path><path d="M642.48 497.52L642.48 497.52" stroke="hsl(228.5, 77.2%, 51.5%)" stroke-width="1.5"></path><path d="M703.55 687.39L703.55 687.39" stroke="hsl(228.5, 77.2%, 51.5%)" stroke-width="1.5"></path><path d="M703.55 687.39L848.99 706.36" stroke="hsl(228.5, 77.2%, 51.5%)" stroke-width="1.5"></path><path d="M703.55 687.39L642.48 497.52" stroke="hsl(228.5, 77.2%, 51.5%)" stroke-width="1.5"></path><path d="M703.55 687.39L855.59 553.22" stroke="hsl(228.5, 77.2%, 51.5%)" stroke-width="1.5"></path><path d="M703.55 687.39L949.68 698.56" stroke="hsl(228.5, 77.2%, 51.5%)" stroke-width="1.5"></path><path d="M855.59 553.22L855.59 553.22" stroke="hsl(228.5, 77.2%, 51.5%)" stroke-width="1.5"></path><path d="M855.59 553.22L945.34 541.66" stroke="hsl(228.5, 77.2%, 51.5%)" stroke-width="1.5"></path><path d="M855.59 553.22L848.99 706.36" stroke="hsl(228.5, 77.2%, 51.5%)" stroke-width="1.5"></path><path d="M848.99 706.36L848.99 706.36" stroke="hsl(228.5, 77.2%, 51.5%)" stroke-width="1.5"></path><path d="M848.99 706.36L949.68 698.56" stroke="hsl(228.5, 77.2%, 51.5%)" stroke-width="1.5"></path><path d="M848.99 706.36L945.34 541.66" stroke="hsl(228.5, 77.2%, 51.5%)" stroke-width="1.5"></path><path d="M987.51 392.2L987.51 392.2" stroke="hsl(228.5, 77.2%, 51.5%)" stroke-width="1.5"></path><path d="M987.51 392.2L1122.06 354.98" stroke="hsl(228.5, 77.2%, 51.5%)" stroke-width="1.5"></path><path d="M987.51 392.2L945.34 541.66" stroke="hsl(228.5, 77.2%, 51.5%)" stroke-width="1.5"></path><path d="M987.51 392.2L855.59 553.22" stroke="hsl(228.5, 77.2%, 51.5%)" stroke-width="1.5"></path><path d="M945.34 541.66L945.34 541.66" stroke="hsl(228.5, 77.2%, 51.5%)" stroke-width="1.5"></path><path d="M945.34 541.66L949.68 698.56" stroke="hsl(228.5, 77.2%, 51.5%)" stroke-width="1.5"></path><path d="M949.68 698.56L949.68 698.56" stroke="hsl(228.5, 77.2%, 51.5%)" stroke-width="1.5"></path><path d="M949.68 698.56L1119.22 695.41" stroke="hsl(228.5, 77.2%, 51.5%)" stroke-width="1.5"></path><path d="M949.68 698.56L855.59 553.22" stroke="hsl(228.5, 77.2%, 51.5%)" stroke-width="1.5"></path><path d="M1122.06 354.98L1122.06 354.98" stroke="hsl(228.5, 77.2%, 51.5%)" stroke-width="1.5"></path><path d="M1122.06 354.98L1291.95 386.07" stroke="hsl(228.5, 77.2%, 51.5%)" stroke-width="1.5"></path><path d="M1122.06 354.98L1276.57 259.4" stroke="hsl(228.5, 77.2%, 51.5%)" stroke-width="1.5"></path><path d="M1122.06 354.98L1277.19 490.69" stroke="hsl(228.5, 77.2%, 51.5%)" stroke-width="1.5"></path><path d="M1119.22 695.41L1119.22 695.41" stroke="hsl(228.5, 77.2%, 51.5%)" stroke-width="1.5"></path><path d="M1119.22 695.41L1243.07 667.59" stroke="hsl(228.5, 77.2%, 51.5%)" stroke-width="1.5"></path><path d="M1119.22 695.41L945.34 541.66" stroke="hsl(228.5, 77.2%, 51.5%)" stroke-width="1.5"></path><path d="M1119.22 695.41L1277.19 490.69" stroke="hsl(228.5, 77.2%, 51.5%)" stroke-width="1.5"></path><path d="M1119.22 695.41L848.99 706.36" stroke="hsl(228.5, 77.2%, 51.5%)" stroke-width="1.5"></path><path d="M1272.07 -102.39L1272.07 -102.39" stroke="hsl(228.5, 77.2%, 51.5%)" stroke-width="1.5"></path><path d="M1272.07 -102.39L1455.08 68.81" stroke="hsl(228.5, 77.2%, 51.5%)" stroke-width="1.5"></path><path d="M1276.57 259.4L1276.57 259.4" stroke="hsl(228.5, 77.2%, 51.5%)" stroke-width="1.5"></path><path d="M1276.57 259.4L1291.95 386.07" stroke="hsl(228.5, 77.2%, 51.5%)" stroke-width="1.5"></path><path d="M1276.57 259.4L1396.15 191.47" stroke="hsl(228.5, 77.2%, 51.5%)" stroke-width="1.5"></path><path d="M1291.95 386.07L1291.95 386.07" stroke="hsl(228.5, 77.2%, 51.5%)" stroke-width="1.5"></path><path d="M1291.95 386.07L1277.19 490.69" stroke="hsl(228.5, 77.2%, 51.5%)" stroke-width="1.5"></path><path d="M1291.95 386.07L1398.14 404.63" stroke="hsl(228.5, 77.2%, 51.5%)" stroke-width="1.5"></path><path d="M1277.19 490.69L1277.19 490.69" stroke="hsl(228.5, 77.2%, 51.5%)" stroke-width="1.5"></path><path d="M1277.19 490.69L1398.14 404.63" stroke="hsl(228.5, 77.2%, 51.5%)" stroke-width="1.5"></path><path d="M1277.19 490.69L1445.73 512.19" stroke="hsl(228.5, 77.2%, 51.5%)" stroke-width="1.5"></path><path d="M1277.19 490.69L1243.07 667.59" stroke="hsl(228.5, 77.2%, 51.5%)" stroke-width="1.5"></path><path d="M1243.07 667.59L1243.07 667.59" stroke="hsl(228.5, 77.2%, 51.5%)" stroke-width="1.5"></path><path d="M1243.07 667.59L1402.75 689.85" stroke="hsl(228.5, 77.2%, 51.5%)" stroke-width="1.5"></path><path d="M1243.07 667.59L1113.14 500.12" stroke="hsl(228.5, 77.2%, 51.5%)" stroke-width="1.5"></path><path d="M1455.08 68.81L1455.08 68.81" stroke="hsl(228.5, 77.2%, 51.5%)" stroke-width="1.5"></path><path d="M1455.08 68.81L1396.15 191.47" stroke="hsl(228.5, 77.2%, 51.5%)" stroke-width="1.5"></path><path d="M1396.15 191.47L1396.15 191.47" stroke="hsl(228.5, 77.2%, 51.5%)" stroke-width="1.5"></path><path d="M1396.15 191.47L1579.35 205.4" stroke="hsl(228.5, 77.2%, 51.5%)" stroke-width="1.5"></path><path d="M1398.14 404.63L1398.14 404.63" stroke="hsl(228.5, 77.2%, 51.5%)" stroke-width="1.5"></path><path d="M1398.14 404.63L1445.73 512.19" stroke="hsl(228.5, 77.2%, 51.5%)" stroke-width="1.5"></path><path d="M1398.14 404.63L1553.49 346.79" stroke="hsl(228.5, 77.2%, 51.5%)" stroke-width="1.5"></path><path d="M1398.14 404.63L1276.57 259.4" stroke="hsl(228.5, 77.2%, 51.5%)" stroke-width="1.5"></path><path d="M1398.14 404.63L1551.62 522.56" stroke="hsl(228.5, 77.2%, 51.5%)" stroke-width="1.5"></path><path d="M1445.73 512.19L1445.73 512.19" stroke="hsl(228.5, 77.2%, 51.5%)" stroke-width="1.5"></path><path d="M1445.73 512.19L1551.62 522.56" stroke="hsl(228.5, 77.2%, 51.5%)" stroke-width="1.5"></path><path d="M1402.75 689.85L1402.75 689.85" stroke="hsl(228.5, 77.2%, 51.5%)" stroke-width="1.5"></path><path d="M1402.75 689.85L1547.4 684.09" stroke="hsl(228.5, 77.2%, 51.5%)" stroke-width="1.5"></path><path d="M1402.75 689.85L1445.73 512.19" stroke="hsl(228.5, 77.2%, 51.5%)" stroke-width="1.5"></path><path d="M1402.75 689.85L1551.62 522.56" stroke="hsl(228.5, 77.2%, 51.5%)" stroke-width="1.5"></path><path d="M1402.75 689.85L1277.19 490.69" stroke="hsl(228.5, 77.2%, 51.5%)" stroke-width="1.5"></path><path d="M1402.75 689.85L1119.22 695.41" stroke="hsl(228.5, 77.2%, 51.5%)" stroke-width="1.5"></path><path d="M1572.56 -65.07L1572.56 -65.07" stroke="hsl(228.5, 77.2%, 51.5%)" stroke-width="1.5"></path><path d="M1572.56 -65.07L1589.13 81.5" stroke="hsl(228.5, 77.2%, 51.5%)" stroke-width="1.5"></path><path d="M1572.56 -65.07L1414.27 -85.09" stroke="hsl(228.5, 77.2%, 51.5%)" stroke-width="1.5"></path><path d="M1572.56 -65.07L1455.08 68.81" stroke="hsl(228.5, 77.2%, 51.5%)" stroke-width="1.5"></path><path d="M1572.56 -65.07L1579.35 205.4" stroke="hsl(228.5, 77.2%, 51.5%)" stroke-width="1.5"></path><path d="M1572.56 -65.07L1272.07 -102.39" stroke="hsl(228.5, 77.2%, 51.5%)" stroke-width="1.5"></path><path d="M1579.35 205.4L1579.35 205.4" stroke="hsl(228.5, 77.2%, 51.5%)" stroke-width="1.5"></path><path d="M1579.35 205.4L1553.49 346.79" stroke="hsl(228.5, 77.2%, 51.5%)" stroke-width="1.5"></path><path d="M1579.35 205.4L1455.08 68.81" stroke="hsl(228.5, 77.2%, 51.5%)" stroke-width="1.5"></path><path d="M1553.49 346.79L1553.49 346.79" stroke="hsl(228.5, 77.2%, 51.5%)" stroke-width="1.5"></path><path d="M1553.49 346.79L1551.62 522.56" stroke="hsl(228.5, 77.2%, 51.5%)" stroke-width="1.5"></path><path d="M1553.49 346.79L1445.73 512.19" stroke="hsl(228.5, 77.2%, 51.5%)" stroke-width="1.5"></path><path d="M1551.62 522.56L1551.62 522.56" stroke="hsl(228.5, 77.2%, 51.5%)" stroke-width="1.5"></path><path d="M1551.62 522.56L1547.4 684.09" stroke="hsl(228.5, 77.2%, 51.5%)" stroke-width="1.5"></path><path d="M1547.4 684.09L1547.4 684.09" stroke="hsl(228.5, 77.2%, 51.5%)" stroke-width="1.5"></path><circle r="25" cx="-66.52" cy="552.53" fill="url(&quot;#SvgjsRadialGradient1015&quot;)"></circle><circle r="25" cx="346.48" cy="500.72" fill="url(&quot;#SvgjsRadialGradient1015&quot;)"></circle><circle r="25" cx="358.25" cy="661.42" fill="url(&quot;#SvgjsRadialGradient1015&quot;)"></circle><circle r="25" cx="666.74" cy="374.85" fill="url(&quot;#SvgjsRadialGradient1015&quot;)"></circle><circle r="25" cx="808.5" cy="359.26" fill="url(&quot;#SvgjsRadialGradient1015&quot;)"></circle><circle r="25" cx="1113.14" cy="500.12" fill="url(&quot;#SvgjsRadialGradient1015&quot;)"></circle><circle r="25" cx="1414.27" cy="-85.09" fill="url(&quot;#SvgjsRadialGradient1015&quot;)"></circle><circle r="25" cx="1589.13" cy="81.5" fill="url(&quot;#SvgjsRadialGradient1015&quot;)"></circle><circle r="5" cx="-64.19" cy="682.97" fill="#8b9ad9"></circle><circle r="5" cx="79.24" cy="546.75" fill="#8b9ad9"></circle><circle r="5" cx="96.25" cy="660.76" fill="#8b9ad9"></circle><circle r="5" cx="227.29" cy="501.09" fill="#8b9ad9"></circle><circle r="5" cx="509.39" cy="410.86" fill="#8b9ad9"></circle><circle r="5" cx="545.08" cy="490.5" fill="#8b9ad9"></circle><circle r="5" cx="528.75" cy="666.81" fill="#8b9ad9"></circle><circle r="5" cx="642.48" cy="497.52" fill="#8b9ad9"></circle><circle r="5" cx="703.55" cy="687.39" fill="#8b9ad9"></circle><circle r="5" cx="855.59" cy="553.22" fill="#8b9ad9"></circle><circle r="5" cx="848.99" cy="706.36" fill="#8b9ad9"></circle><circle r="5" cx="987.51" cy="392.2" fill="#8b9ad9"></circle><circle r="5" cx="945.34" cy="541.66" fill="#8b9ad9"></circle><circle r="5" cx="949.68" cy="698.56" fill="#8b9ad9"></circle><circle r="5" cx="1122.06" cy="354.98" fill="#8b9ad9"></circle><circle r="5" cx="1119.22" cy="695.41" fill="#8b9ad9"></circle><circle r="5" cx="1272.07" cy="-102.39" fill="#8b9ad9"></circle><circle r="5" cx="1276.57" cy="259.4" fill="#8b9ad9"></circle><circle r="5" cx="1291.95" cy="386.07" fill="#8b9ad9"></circle><circle r="5" cx="1277.19" cy="490.69" fill="#8b9ad9"></circle><circle r="5" cx="1243.07" cy="667.59" fill="#8b9ad9"></circle><circle r="5" cx="1455.08" cy="68.81" fill="#8b9ad9"></circle><circle r="5" cx="1396.15" cy="191.47" fill="#8b9ad9"></circle><circle r="5" cx="1398.14" cy="404.63" fill="#8b9ad9"></circle><circle r="5" cx="1445.73" cy="512.19" fill="#8b9ad9"></circle><circle r="5" cx="1402.75" cy="689.85" fill="#8b9ad9"></circle><circle r="5" cx="1572.56" cy="-65.07" fill="#8b9ad9"></circle><circle r="5" cx="1579.35" cy="205.4" fill="#8b9ad9"></circle><circle r="5" cx="1553.49" cy="346.79" fill="#8b9ad9"></circle><circle r="5" cx="1551.62" cy="522.56" fill="#8b9ad9"></circle><circle r="5" cx="1547.4" cy="684.09" fill="#8b9ad9"></circle></g><defs><mask id="SvgjsMask1014"><rect width="1440" height="560" fill="#ffffff"></rect></mask><radialGradient id="SvgjsRadialGradient1015"><stop stop-color="#ffffff" offset="0.1"></stop><stop stop-color="#1735b3" offset="0.2"></stop><stop stop-color="rgba(23, 53, 179, 0)" offset="1"></stop></radialGradient></defs></svg>